<!-- Court Data Collector - Letter C Icon 16x16 -->
<svg width="16" height="16" viewBox="0 0 16 16" fill="none" xmlns="http://www.w3.org/2000/svg">
  <!-- Background with rounded corners -->
  <rect width="16" height="16" rx="3" fill="#1e40af"/>
  <!-- Letter C in white -->
  <path d="M10.5 4.5C10.2 4.2 9.7 4 9 4H7C5.3 4 4 5.3 4 7v2c0 1.7 1.3 3 3 3h2c0.7 0 1.2-0.2 1.5-0.5l-0.7-0.7C9.6 10.9 9.3 11 9 11H7c-1.1 0-2-0.9-2-2V7c0-1.1 0.9-2 2-2h2c0.3 0 0.6 0.1 0.8 0.2l0.7-0.7z" fill="white"/>
  <!-- Small legal scale accent -->
  <circle cx="12" cy="12" r="1.5" fill="white" opacity="0.8"/>
  <rect x="11.2" y="11.2" width="1.6" height="0.4" rx="0.2" fill="#1e40af"/>
</svg>